<?xml version="1.0" encoding="UTF-8" standalone="no"?>
<!-- Created with Inkscape (http://www.inkscape.org/) -->

<svg
   xmlns:dc="http://purl.org/dc/elements/1.1/"
   xmlns:cc="http://creativecommons.org/ns#"
   xmlns:rdf="http://www.w3.org/1999/02/22-rdf-syntax-ns#"
   xmlns:svg="http://www.w3.org/2000/svg"
   xmlns="http://www.w3.org/2000/svg"
   xmlns:sodipodi="http://sodipodi.sourceforge.net/DTD/sodipodi-0.dtd"
   xmlns:inkscape="http://www.inkscape.org/namespaces/inkscape"
   version="1.1"
   id="svg2"
   xml:space="preserve"
   width="4096"
   height="4096"
   viewBox="0 0 4096 4096"
   sodipodi:docname="makita-logo.svg"
   inkscape:version="0.92.2 (5c3e80d, 2017-08-06)"><metadata
     id="metadata8"><rdf:RDF><cc:Work
         rdf:about=""><dc:format>image/svg+xml</dc:format><dc:type
           rdf:resource="http://purl.org/dc/dcmitype/StillImage" /><dc:title></dc:title></cc:Work></rdf:RDF></metadata><defs
     id="defs6"><clipPath
       clipPathUnits="userSpaceOnUse"
       id="clipPath20"><path
         d="M 0,595.276 H 419.528 V 0 H 0 Z"
         id="path18"
         inkscape:connector-curvature="0" /></clipPath><linearGradient
       x1="0"
       y1="0"
       x2="1"
       y2="0"
       gradientUnits="userSpaceOnUse"
       gradientTransform="matrix(0,76.0517,76.0517,0,210.69239,467.54768)"
       spreadMethod="pad"
       id="linearGradient92"><stop
         style="stop-opacity:1;stop-color:#2c3439"
         offset="0"
         id="stop86" /><stop
         style="stop-opacity:1;stop-color:#3f494e"
         offset="0.308544"
         id="stop88" /><stop
         style="stop-opacity:1;stop-color:#4d5860"
         offset="1"
         id="stop90" /></linearGradient><clipPath
       clipPathUnits="userSpaceOnUse"
       id="clipPath102"><path
         d="M 0,0 H 419.528 V 595.275 H 0 Z"
         id="path100"
         inkscape:connector-curvature="0" /></clipPath><clipPath
       clipPathUnits="userSpaceOnUse"
       id="clipPath164"><path
         d="M 0,394.617 V 265.961 l 194.56,65.054 v 128.656 z"
         id="path162"
         inkscape:connector-curvature="0" /></clipPath><clipPath
       clipPathUnits="userSpaceOnUse"
       id="clipPath176"><path
         d="m 0,263.195 v -131.67 l 8.381,1.33 3.334,0.53 142.64,47.148 v 127.241 l -0.459,2.894 -0.513,3.225 z"
         id="path174"
         inkscape:connector-curvature="0" /></clipPath><clipPath
       clipPathUnits="userSpaceOnUse"
       id="clipPath188"><path
         d="M 0,126.359 V 20.572 h 217.754 v 177.762 z"
         id="path186"
         inkscape:connector-curvature="0" /></clipPath><clipPath
       clipPathUnits="userSpaceOnUse"
       id="clipPath200"><path
         d="M 220.71,143.846 V 13.519 l 198.818,0.223 v 196.409 z"
         id="path198"
         inkscape:connector-curvature="0" /></clipPath><clipPath
       clipPathUnits="userSpaceOnUse"
       id="clipPath212"><path
         d="m 219.857,200.242 v -55.088 l 114.372,38.259 v 55.089 z"
         id="path210"
         inkscape:connector-curvature="0" /></clipPath><clipPath
       clipPathUnits="userSpaceOnUse"
       id="clipPath224"><path
         d="m 334.237,373.739 -0.008,-190.326 85.299,27.371 v 190.781 z"
         id="path222"
         inkscape:connector-curvature="0" /></clipPath><clipPath
       clipPathUnits="userSpaceOnUse"
       id="clipPath236"><path
         d="M 156.959,314.436 V 180.754 l 177.278,59.304 v 133.681 z"
         id="path234"
         inkscape:connector-curvature="0" /></clipPath><clipPath
       clipPathUnits="userSpaceOnUse"
       id="clipPath248"><path
         d="M 187.114,456.059 V 329.413 l 232.414,74.504 v 129.542 z"
         id="path246"
         inkscape:connector-curvature="0" /></clipPath><clipPath
       clipPathUnits="userSpaceOnUse"
       id="clipPath304"><path
         d="M 0,0 H 419.528 V 595.275 H 0 Z"
         id="path302"
         inkscape:connector-curvature="0" /></clipPath><clipPath
       clipPathUnits="userSpaceOnUse"
       id="clipPath396"><path
         d="M 0,0 H 419.528 V 595.275 H 0 Z"
         id="path394"
         inkscape:connector-curvature="0" /></clipPath></defs><sodipodi:namedview
     pagecolor="#ffffff"
     bordercolor="#666666"
     borderopacity="1"
     objecttolerance="10"
     gridtolerance="10"
     guidetolerance="10"
     inkscape:pageopacity="0"
     inkscape:pageshadow="2"
     inkscape:window-width="985"
     inkscape:window-height="660"
     id="namedview4"
     showgrid="false"
     inkscape:zoom="0.05256297"
     inkscape:cx="3241.782"
     inkscape:cy="4710.8996"
     inkscape:window-x="605"
     inkscape:window-y="113"
     inkscape:window-maximized="0"
     inkscape:current-layer="g392" /><g
     id="g10"
     inkscape:groupmode="layer"
     inkscape:label="makita-logo"
     transform="matrix(1.3333333,0,0,-1.3333333,0,4096)"><g
       id="g230"
       transform="matrix(13.994345,0,0,13.994345,-137.51298,-75.742737)" /><g
       id="g298"
       transform="matrix(34.845446,0,0,34.845446,-11591.046,423.47206)"><g
         id="g300"
         clip-path="url(#clipPath304)"><path
           d="M 408.9,21.202 H 344.545 V 42.653 H 408.9 Z"
           style="fill:#e30613;fill-opacity:1;fill-rule:nonzero;stroke:none"
           id="path310"
           inkscape:connector-curvature="0" /><g
           id="g312"
           transform="translate(404.711,35.0734)"><path
             d="m -3.488,-11.593 h -2.03 l 1.606,4.023 h 2.031 z m -33.25,0 h -2.032 l 1.606,4.023 h 2.031 z m 36.415,0.091 2.314,6.356 H -4.243 C -6.181,-5.191 -6.841,-7.34 -6.841,-7.34 l -1.558,-4.162 h -3.307 l 1.558,4.344 h 1.89 l 0.708,2.149 h -1.747 l 1.133,3.019 h -2.975 l -1.275,-3.111 h -1.842 l -0.757,-2.103 h 1.936 l -1.652,-4.343 h -3.306 l 2.315,6.446 h -2.882 l -2.55,-6.469 -2.55,-0.023 -0.615,2.377 4.156,4.07 h -3.447 l -3.306,-3.155 2.219,6.311 h -2.881 l -3.637,-9.557 h -2.361 l 2.267,6.401 h -6.377 c -1.656,0 -2.362,-1.783 -2.362,-1.783 l -1.842,-4.573 h -2.361 l 2.315,6.356 h -5.055 l 0.567,1.6 h -5.006 l 0.519,1.556 h -9.258 v -2.653 h 5.29 l -3.491,-9.228 h 3.023 l 2.972,7.765 h 1.984 l -2.783,-7.765 h 3.021 l 2.359,6.301 h 2.173 l -2.452,-6.301 h 4.07 c 0.099,0.071 0.865,0.613 2.043,1.477 0,0 0.279,-1.125 1.186,-1.477 h 2.136 c 0.045,0.058 0.346,0.334 1.803,1.523 0,0 0.07,-1.059 1.067,-1.523 h 2.577 c 0.058,0.067 0.458,0.506 1.693,1.512 l -0.587,-1.512 h 3.047 l 1.697,4.428 1.366,-4.428 h 3.128 l 1.551,1.5 c 0.242,-1.244 1.13,-1.464 1.389,-1.5 h 3.437 l 1.597,1.455 c 0.131,-0.971 1.185,-1.395 1.347,-1.455 h 3.434 l 1.549,1.5 c 0.189,-1.28 1.511,-1.5 1.511,-1.5 h 2.078 l 1.464,1.5 c 0.237,-1.28 1.654,-1.5 1.654,-1.5 h 6.022 v 2.369 z m -14.312,9.512 h -2.88 l -0.851,-2.378 h 2.882 z"
             style="fill:#ffffff;fill-opacity:1;fill-rule:nonzero;stroke:none"
             id="path314"
             inkscape:connector-curvature="0"
             sodipodi:nodetypes="cccccccccccccccccccccccccccccccccccccccccscccccccccccccccccccccccccccccccccccccccccccccccccccc" /></g></g></g><g
       id="g390"
       transform="matrix(39.646471,0,0,39.646471,3286.5903,538.42537)"><g
         id="g392"
         clip-path="url(#clipPath396)"><g
           id="g398"
           transform="translate(74.252602,5.8289)"><path
             d="m 0,0 c -0.674,0 -1.241,0.184 -1.688,0.547 l -2.374,1.187 -23.489,10.54 c -0.04,0.018 -1.081,0.48 -1.445,1.561 -0.249,0.737 -0.123,1.563 0.376,2.453 l 6.137,9.659 c 0.065,0.13 2.005,3.841 5.248,4.377 0.891,0.233 31.846,8.255 73.289,8.845 h 10.928 c 0.073,0.011 0.266,0.033 0.508,0.033 0.812,0 1.388,-0.247 1.666,-0.717 0.315,-0.535 0.212,-1.266 -0.32,-2.235 C 68.601,35.668 63.628,23.467 58.132,17.382 58.028,17.265 55.496,14.476 50.921,13.358 L 2.148,0.512 C 1.953,0.419 1.012,0 0,0"
             style="fill:#000000;fill-opacity:1;fill-rule:nonzero;stroke:none"
             id="path400"
             inkscape:connector-curvature="0" /></g><g
           id="g410"
           transform="translate(114.0051,24.2948)"><path
             d="m 0,0 h -2.266 l 1.465,4.023 h 2.265 z m -32.132,0 h -2.265 l 1.463,4.023 h 2.266 z M 2.769,0 5.095,6.389 H -0.89 C -1.983,6.389 -2.96,5.702 -3.336,4.674 -3.901,3.116 -5.035,0 -5.035,0 H -8.3 l 1.579,4.327 h 1.836 l 0.748,2.062 h -1.835 l 1.117,3.074 h -2.771 l -1.12,-3.074 h -1.837 l -0.749,-2.062 h 1.838 L -11.07,0 h -3.382 l 2.325,6.389 h -2.769 L -17.221,0 h -2.491 l -0.665,2.488 4.182,3.901 h -3.545 l -3.17,-3.172 2.273,6.246 h -2.771 L -26.853,0 h -2.511 l 2.328,6.389 h -5.985 c -1.094,0 -2.071,-0.687 -2.446,-1.715 C -36.035,3.116 -37.167,0 -37.167,0 h -2.289 l 2.327,6.389 h -4.962 l 0.56,1.535 h -4.961 l 0.562,1.539 h -9.017 V 6.98 h 5.342 l -3.403,-9.348 h 2.772 l 2.883,7.926 h 2.191 l -2.885,-7.926 h 2.77 l 2.325,6.391 h 2.191 l -2.324,-6.391 h 4.274 c 0,0 1.022,1.021 1.533,1.534 0.098,-0.875 0.838,-1.534 1.716,-1.534 h 1.556 c 0.585,0.587 1.168,1.168 1.752,1.755 -0.015,-0.965 0.762,-1.755 1.727,-1.755 h 1.726 c 0.571,0.572 1.711,1.711 1.711,1.711 l -0.624,-1.711 h 2.772 l 1.825,5.02 1.347,-5.02 h 2.693 c 0,0 1.155,1.157 1.734,1.733 -0.003,-0.955 0.77,-1.733 1.726,-1.733 h 2.739 l 1.688,1.687 c 0.021,-0.937 0.789,-1.687 1.727,-1.687 h 2.62 c 0,0 1.124,1.124 1.687,1.687 0.022,-0.937 0.788,-1.687 1.727,-1.687 h 1.553 c 0,0 1.17,1.168 1.755,1.755 -0.015,-0.965 0.762,-1.755 1.727,-1.755 H 7.115 V 0 Z"
             style="fill:#ffffff;fill-opacity:1;fill-rule:nonzero;stroke:none"
             id="path412"
             inkscape:connector-curvature="0" /></g><g
           id="g414"
           transform="translate(102.9983,33.7575)"><path
             d="m 0,0 h -2.77 l -0.86,-2.365 h 2.77 z"
             style="fill:#ffffff;fill-opacity:1;fill-rule:nonzero;stroke:none"
             id="path416"
             inkscape:connector-curvature="0" /></g><g
           id="g418"
           transform="translate(79.221302,16.5632)"><path
             d="m 0,0 c -0.161,0.16 -0.389,0.255 -0.616,0.255 h -1.696 c 0.159,-0.252 0.17,-0.383 0.227,-0.621 h 0.6 c 0.065,0 0.13,-0.027 0.175,-0.073 0.051,-0.043 0.074,-0.11 0.074,-0.177 V -3.84 h 1.487 v 3.224 C 0.251,-0.388 0.16,-0.16 0,0"
             style="fill:#ffffff;fill-opacity:1;fill-rule:nonzero;stroke:none"
             id="path420"
             inkscape:connector-curvature="0" /></g><g
           id="g422"
           transform="translate(75.502602,16.8189)"><path
             d="m 0,0 h -1.467 v -0.622 h 0.599 c 0.065,0 0.128,-0.027 0.171,-0.074 0.05,-0.042 0.075,-0.108 0.075,-0.175 v -3.224 h 1.49 v 3.224 c 0,0.228 -0.093,0.456 -0.256,0.616 C 0.454,-0.096 0.226,0 0,0"
             style="fill:#ffffff;fill-opacity:1;fill-rule:nonzero;stroke:none"
             id="path424"
             inkscape:connector-curvature="0" /></g><g
           id="g426"
           transform="translate(71.779702,17.1891)"><path
             d="M 0,0 V -4.466 H 1.491 V -0.37 Z"
             style="fill:#ffffff;fill-opacity:1;fill-rule:nonzero;stroke:none"
             id="path428"
             inkscape:connector-curvature="0" /></g><g
           id="g430"
           transform="translate(82.944502,13.3428)"><path
             d="M 0,0 C -0.066,0 -0.133,0.027 -0.177,0.074 -0.221,0.117 -0.25,0.183 -0.25,0.249 V 2.855 H 1.49 C 1.392,3.029 1.335,3.127 1.301,3.476 H -0.25 V 4.593 L -1.735,4.964 V 3.476 h -1.213 c 0,0 0.117,-0.147 0.167,-0.317 0.054,-0.185 0.075,-0.304 0.075,-0.304 h 0.971 V 0.249 c 0,-0.232 0.092,-0.455 0.251,-0.614 0.159,-0.163 0.386,-0.254 0.613,-0.254 H 1.738 C 1.609,-0.436 1.524,-0.222 1.49,0 Z"
             style="fill:#ffffff;fill-opacity:1;fill-rule:nonzero;stroke:none"
             id="path432"
             inkscape:connector-curvature="0" /></g><g
           id="g434"
           transform="translate(69.843402,15.4644)"><path
             d="M 0,0 H -6.041 L -8.935,1.349 H 0 Z"
             style="fill:#ffffff;fill-opacity:1;fill-rule:nonzero;stroke:none"
             id="path436"
             inkscape:connector-curvature="0" /></g><g
           id="g438"
           transform="translate(69.843402,12.7292)"><path
             d="M 0,0 V 1.759 H -3.86 Z"
             style="fill:#ffffff;fill-opacity:1;fill-rule:nonzero;stroke:none"
             id="path440"
             inkscape:connector-curvature="0" /></g><g
           id="g442"
           transform="translate(86.432402,15.4634)"><path
             d="m 0,0 h 10.76 l 5.036,1.35 H 0 Z"
             style="fill:#ffffff;fill-opacity:1;fill-rule:nonzero;stroke:none"
             id="path444"
             inkscape:connector-curvature="0" /></g><g
           id="g446"
           transform="translate(86.434402,12.7292)"><path
             d="M 0,0 V 1.759 H 7.063 Z"
             style="fill:#ffffff;fill-opacity:1;fill-rule:nonzero;stroke:none"
             id="path448"
             inkscape:connector-curvature="0" /></g></g></g></g></svg>